HIERARCHY
ROOT root
{
	OFFSET 0.000000 0.000000 0.000000
	CHANNELS 6 Xposition Yposition Zposition Zrotation Yrotation Xrotation
	JOINT lhip
	{
		OFFSET 0.058581 -0.082280 -0.017664
		CHANNELS 3 Zrotation Yrotation Xrotation
		JOINT lknee
		{
			OFFSET 0.043451 -0.386469 0.008037
			CHANNELS 3 Zrotation Yrotation Xrotation
			JOINT lankle
			{
				OFFSET -0.014790 -0.426874 -0.037428
				CHANNELS 3 Zrotation Yrotation Xrotation
				JOINT ltoe
				{
					OFFSET 0.041054 -0.060286 0.122042
					CHANNELS 3 Zrotation Yrotation Xrotation
					End Site
					{
						OFFSET 0.000000 0.000000 0.000000
					}
				}
			}
		}
	}
	JOINT rhip
	{
		OFFSET -0.060310 -0.090513 -0.013543
		CHANNELS 3 Zrotation Yrotation Xrotation
		JOINT rknee
		{
			OFFSET -0.043257 -0.383688 -0.004843
			CHANNELS 3 Zrotation Yrotation Xrotation
			JOINT rankle
			{
				OFFSET 0.019056 -0.420046 -0.034562
				CHANNELS 3 Zrotation Yrotation Xrotation
				JOINT rtoe
				{
					OFFSET -0.034840 -0.062106 0.130323
					CHANNELS 3 Zrotation Yrotation Xrotation
					End Site
					{
						OFFSET 0.000000 0.000000 0.000000
					}
				}
			}
		}
	}
	JOINT lowerback
	{
		OFFSET 0.004439 0.124404 -0.038385
		CHANNELS 3 Zrotation Yrotation Xrotation
		JOINT upperback
		{
			OFFSET 0.004488 0.137956 0.026820
			CHANNELS 3 Zrotation Yrotation Xrotation
			JOINT chest
			{
				OFFSET -0.002265 0.056032 0.002855
				CHANNELS 3 Zrotation Yrotation Xrotation
				JOINT lowerneck
				{
					OFFSET -0.013390 0.211636 -0.033468
					CHANNELS 3 Zrotation Yrotation Xrotation
					JOINT upperneck
					{
						OFFSET 0.010113 0.088937 0.050410
						CHANNELS 3 Zrotation Yrotation Xrotation
						End Site
						{
							OFFSET 0.000000 0.000000 0.000000
						}
					}
				}
				JOINT lclavicle
				{
					OFFSET 0.071702 0.114000 -0.018898
					CHANNELS 3 Zrotation Yrotation Xrotation
					JOINT lshoulder
					{
						OFFSET 0.122921 0.045205 -0.019046
						CHANNELS 3 Zrotation Yrotation Xrotation
						JOINT lelbow
						{
							OFFSET 0.255332 -0.015649 -0.022946
							CHANNELS 3 Zrotation Yrotation Xrotation
							JOINT lwrist
							{
								OFFSET 0.265709 0.012698 -0.007375
								CHANNELS 3 Zrotation Yrotation Xrotation
								End Site
								{
									OFFSET 0.000000 0.000000 0.000000
								}
							}
						}
					}
				}
				JOINT rclavicle
				{
					OFFSET -0.082954 0.112472 -0.023707
					CHANNELS 3 Zrotation Yrotation Xrotation
					JOINT rshoulder
					{
						OFFSET -0.113228 0.046853 -0.008472
						CHANNELS 3 Zrotation Yrotation Xrotation
						JOINT relbow
						{
							OFFSET -0.260127 -0.014369 -0.031269
							CHANNELS 3 Zrotation Yrotation Xrotation
							JOINT rwrist
							{
								OFFSET -0.269108 0.006794 -0.006027
								CHANNELS 3 Zrotation Yrotation Xrotation
								End Site
								{
									OFFSET 0.000000 0.000000 0.000000
								}
							}
						}
					}
				}
			}
		}
	}
}
MOTION
Frames: 8
Frame Time: 0.033333
0.249302 0.225995 0.993617 89.150022 0.050424 86.628335 15.312194 7.323457 9.053071 0.536458 -11.090907 -1.790627 -6.789148 19.711119 -9.088762 0.000000 -0.000000 0.000000 -12.379540 -1.961317 5.021889 -1.593848 22.469165 3.235620 10.687592 -10.162099 -12.227200 0.000000 -0.000000 0.000000 1.936717 0.408210 3.954250 -1.387483 -2.596191 -1.357191 -0.261094 0.351596 1.812286 0.343166 -0.418666 5.340364 3.905624 -0.825671 1.340902 15.019527 -1.098066 -7.457883 10.660370 -1.990030 -22.975632 5.694216 -6.531838 -13.659429 1.226435 -14.409001 12.948374 -19.250464 3.390614 -10.184471 -11.786048 0.739934 -20.283159 -7.780971 10.178761 -14.912198 -2.938847 9.501468 3.161633 
0.250765 0.226520 0.993998 89.333805 0.111564 87.279955 15.265119 7.502383 8.436970 0.527382 -11.500076 -1.647769 -6.829109 19.943222 -9.252174 0.000000 -0.000000 0.000000 -12.217435 -2.261542 4.577265 -1.716366 22.845555 3.177916 10.782440 -10.515061 -12.337713 0.000000 -0.000000 0.000000 1.802283 0.352279 4.241835 -1.499519 -2.525711 -1.994466 -0.235002 -0.029851 2.318414 0.344633 -0.658849 5.241531 4.543107 -0.206560 -0.180498 14.742020 2.809667 -6.891901 9.531916 0.525162 -24.747836 6.313679 -2.409436 -17.104265 0.775224 -12.671911 11.045617 -18.460047 -0.569932 -9.227565 -10.157949 -1.940127 -19.471336 -7.970568 9.149540 -14.741133 -0.549063 8.278498 3.184225 
0.251501 0.226356 0.993962 89.472745 0.203235 87.884369 15.321539 7.684026 7.924984 0.490480 -11.767291 -1.701297 -6.793519 20.091644 -9.297032 0.000000 -0.000000 0.000000 -12.024102 -2.404787 4.124940 -1.810415 22.990033 3.103092 10.750003 -10.665963 -12.421980 0.000000 -0.000000 0.000000 1.498277 0.242188 4.458016 -1.502705 -2.468507 -2.459724 -0.097802 -0.265409 2.715580 0.359607 -0.554483 5.238491 4.964992 0.417412 -1.352495 13.664651 6.164370 -6.542536 7.991074 2.794943 -25.960357 6.436793 1.614378 -19.682611 2.375773 -11.594658 9.983978 -17.026831 -4.041365 -7.971656 -7.621767 -4.192325 -18.916480 -8.219486 7.341381 -15.951075 -1.961682 8.511353 1.382374 
0.251673 0.226105 0.993563 89.518034 0.322944 88.347824 15.398693 7.712426 7.673600 0.478630 -11.817283 -1.963741 -6.730043 20.197741 -9.310754 0.000000 -0.000000 0.000000 -11.866424 -2.384208 3.718545 -1.835071 22.857169 3.123434 10.807325 -10.500942 -12.526388 0.000000 -0.000000 0.000000 1.258366 0.058027 4.310200 -1.378605 -2.339903 -2.276532 -0.078704 -0.466997 3.132225 0.401384 -0.161003 5.272418 4.927819 0.828533 -2.633169 11.917571 9.679936 -6.020855 5.315925 4.339386 -25.941290 6.193916 4.515344 -20.443724 3.277966 -10.330334 9.253703 -14.681489 -7.039795 -6.686752 -4.659857 -5.661065 -18.177093 -8.291148 5.441701 -17.294834 -2.343860 7.718089 0.082400 
0.251236 0.225913 0.992716 89.544387 0.490237 88.712471 15.486406 7.480926 7.555524 0.529677 -11.474056 -2.362021 -6.670464 20.136407 -9.140371 0.000000 -0.000000 0.000000 -11.688371 -2.197101 3.327125 -1.802588 22.579418 3.209669 10.675894 -10.268373 -12.609088 0.000000 -0.000000 0.000000 1.165807 -0.146582 3.817679 -1.298294 -2.138068 -1.408378 -0.046371 -0.680054 3.348970 0.272883 -0.011445 5.383124 4.779236 1.433403 -4.237076 8.896817 12.398403 -5.055937 1.574587 5.957799 -24.893260 6.334245 5.433289 -20.216688 3.603360 -9.002821 8.212794 -11.647910 -8.823542 -5.326418 -1.483057 -7.087359 -17.300271 -8.002041 3.431504 -18.602807 -2.725340 6.295819 -0.311445 
0.250587 0.225340 0.991751 89.464867 0.593445 89.018725 15.562892 7.263285 7.335650 0.404861 -10.952607 -2.375582 -6.307600 19.893927 -9.224768 0.000000 -0.000000 0.000000 -11.596001 -2.208706 2.819096 -1.717509 22.128990 3.500083 10.347844 -9.636026 -12.673582 0.000000 -0.000000 0.000000 1.144308 -0.160159 3.450141 -1.294597 -1.670594 -0.694895 -0.094384 -0.658185 3.424816 0.189603 -0.420849 4.948499 4.848219 1.314358 -4.725883 5.424895 14.406057 -4.276214 -3.190681 6.034547 -23.850329 6.905838 5.306733 -20.498634 3.885717 -7.607458 6.054946 -8.520386 -10.480236 -3.636582 2.621373 -7.908896 -16.176290 -7.946067 1.383834 -19.292064 -2.508591 5.560738 -0.771621 
0.249207 0.224416 0.990941 89.340793 0.492019 89.144268 15.400125 6.903842 7.070365 0.267937 -10.231826 -2.073828 -6.085244 19.564723 -9.329620 0.000000 -0.000000 0.000000 -11.744286 -2.073771 2.422088 -1.619170 21.393348 3.872767 10.183304 -8.821543 -12.758707 0.000000 -0.000000 0.000000 1.044606 -0.045074 3.354508 -1.368279 -1.220240 -0.216605 -0.274047 -0.526270 3.428597 0.122991 -0.886473 4.375714 5.032028 0.813523 -4.621350 1.826122 15.614100 -3.933780 -7.716885 5.249152 -22.554119 6.772153 4.835926 -21.048778 3.645572 -6.455623 4.036133 -4.992267 -11.709279 -2.655079 7.055503 -8.630561 -14.579046 -8.399617 1.634228 -20.022153 -1.496142 4.894580 -1.571855 
0.248337 0.223208 0.989773 89.237996 0.347494 89.128678 15.287312 6.861516 6.814575 0.054114 -9.640152 -1.459925 -5.625114 18.911588 -9.537338 0.000000 -0.000000 0.000000 -11.962142 -2.099655 2.295589 -1.565570 20.835923 4.071349 9.947693 -8.063719 -12.714344 0.000000 -0.000000 0.000000 1.087598 0.092137 3.269452 -1.533667 -0.884825 0.223256 -0.658127 -0.428715 3.244972 0.174712 -1.145042 3.352595 4.887637 0.316642 -3.609458 -1.875394 15.967153 -3.809544 -11.690027 3.898439 -21.152866 7.107830 4.526995 -20.875849 2.561430 -5.365254 2.479204 -1.339673 -12.152201 -2.044335 11.125476 -8.914959 -12.850379 -8.792515 2.452224 -20.621878 -0.502084 4.550025 -3.101038 
